<svg xmlns="http://www.w3.org/2000/svg" xmlns:xlink="http://www.w3.org/1999/xlink" version="1.1" viewBox="0 0 256 256" xml:space="preserve">

<defs>
</defs>
<g style="stroke: none; stroke-width: 0; stroke-dasharray: none; stroke-linecap: butt; stroke-linejoin: miter; stroke-miterlimit: 10; fill: none; fill-rule: nonzero; opacity: 1;" transform="translate(1.4065934065934016 1.4065934065934016) scale(2.81 2.81)" >
	<path d="M 68.231 76.717 h -11 v -9.664 c 0 -0.553 -0.447 -1 -1 -1 H 33.769 c -0.552 0 -1 0.447 -1 1 v 9.664 h -11 c -0.552 0 -1 0.447 -1 1 s 0.448 1 1 1 h 46.461 c 0.553 0 1 -0.447 1 -1 S 68.783 76.717 68.231 76.717 z" style="stroke: none; stroke-width: 1; stroke-dasharray: none; stroke-linecap: butt; stroke-linejoin: miter; stroke-miterlimit: 10; fill: rgb(90,131,193); fill-rule: nonzero; opacity: 1;" transform=" matrix(1 0 0 1 0 0) " stroke-linecap="round" />
	<path d="M 57.23 66.898 h 29.607 c 1.743 0 3.162 -1.419 3.162 -3.162 v -48.29 c 0 -1.744 -1.419 -3.163 -3.162 -3.163 H 3.163 C 1.419 12.284 0 13.703 0 15.446 v 48.29 c 0 1.743 1.419 3.162 3.163 3.162 h 29.606 H 57.23 z" style="stroke: none; stroke-width: 1; stroke-dasharray: none; stroke-linecap: butt; stroke-linejoin: miter; stroke-miterlimit: 10; fill: rgb(115,155,215); fill-rule: nonzero; opacity: 1;" transform=" matrix(1 0 0 1 0 0) " stroke-linecap="round" />
	<circle cx="45.4" cy="59.39" r="2" style="stroke: none; stroke-width: 1; stroke-dasharray: none; stroke-linecap: butt; stroke-linejoin: miter; stroke-miterlimit: 10; fill: rgb(140,180,235); fill-rule: nonzero; opacity: 1;" transform="  matrix(1 0 0 1 0 0) "/>
	<path d="M 3.163 14.284 h 83.675 c 0.641 0 1.162 0.521 1.162 1.163 V 52.56 H 2 V 15.446 C 2 14.805 2.521 14.284 3.163 14.284 z" style="stroke: none; stroke-width: 1; stroke-dasharray: none; stroke-linecap: butt; stroke-linejoin: miter; stroke-miterlimit: 10; fill: rgb(140,180,235); fill-rule: nonzero; opacity: 1;" transform=" matrix(1 0 0 1 0 0) " stroke-linecap="round" />
	<path d="M 45 45.5 c -0.096 0 -0.192 -0.026 -0.276 -0.08 c -5.415 -3.397 -9.19 -9.794 -11.222 -19.013 c -0.03 -0.135 -0.005 -0.275 0.07 -0.392 c 0.074 -0.116 0.192 -0.198 0.326 -0.227 c 4.334 -0.948 7.855 -2.636 10.761 -5.162 c 0.195 -0.17 0.486 -0.17 0.681 0 c 2.907 2.525 6.427 4.214 10.762 5.162 c 0.134 0.029 0.252 0.111 0.326 0.227 c 0.075 0.116 0.1 0.257 0.07 0.392 c -2.032 9.218 -5.807 15.616 -11.222 19.013 C 45.192 45.474 45.096 45.5 45 45.5 z" style="stroke: none; stroke-width: 1; stroke-dasharray: none; stroke-linecap: butt; stroke-linejoin: miter; stroke-miterlimit: 10; fill: rgb(255,255,255); fill-rule: nonzero; opacity: 1;" transform=" matrix(1 0 0 1 0 0) " stroke-linecap="round" />
</g>
</svg>