<svg xmlns="http://www.w3.org/2000/svg" xmlns:xlink="http://www.w3.org/1999/xlink" version="1.1"  viewBox="0 0 256 256" xml:space="preserve">

<defs>
</defs>
<g style="stroke: none; stroke-width: 0; stroke-dasharray: none; stroke-linecap: butt; stroke-linejoin: miter; stroke-miterlimit: 10; fill: none; fill-rule: nonzero; opacity: 1;" transform="translate(1.4065934065934016 1.4065934065934016) scale(2.81 2.81)" >
	<path d="M 84.58 69.099 H 5.42 c -2.441 0 -4.42 -1.979 -4.42 -4.42 v -2.004 h 88 v 2.004 C 89 67.12 87.021 69.099 84.58 69.099 z" style="stroke: none; stroke-width: 1; stroke-dasharray: none; stroke-linecap: butt; stroke-linejoin: miter; stroke-miterlimit: 10; fill: rgb(108,116,150); fill-rule: nonzero; opacity: 1;" transform=" matrix(1 0 0 1 0 0) " stroke-linecap="round" />
	<path d="M 59.054 83.674 H 30.946 c -1.439 0 -2.605 -1.166 -2.605 -2.605 v 0 c 0 -1.439 1.166 -2.605 2.605 -2.605 h 28.108 c 1.439 0 2.605 1.166 2.605 2.605 v 0 C 61.659 82.507 60.493 83.674 59.054 83.674 z" style="stroke: none; stroke-width: 1; stroke-dasharray: none; stroke-linecap: butt; stroke-linejoin: miter; stroke-miterlimit: 10; fill: rgb(108,116,150); fill-rule: nonzero; opacity: 1;" transform=" matrix(1 0 0 1 0 0) " stroke-linecap="round" />
	<polygon points="56.48,78.46 33.52,78.46 35.52,69.1 54.48,69.1 " style="stroke: none; stroke-width: 1; stroke-dasharray: none; stroke-linecap: butt; stroke-linejoin: miter; stroke-miterlimit: 10; fill: rgb(108,116,150); fill-rule: nonzero; opacity: 1;" transform="  matrix(1 0 0 1 0 0) "/>
	<path d="M 89 62.676 H 1 V 10.747 c 0 -2.441 1.979 -4.42 4.42 -4.42 h 79.16 c 2.441 0 4.42 1.979 4.42 4.42 V 62.676 z" style="stroke: none; stroke-width: 1; stroke-dasharray: none; stroke-linecap: butt; stroke-linejoin: miter; stroke-miterlimit: 10; fill: rgb(190,199,237); fill-rule: nonzero; opacity: 1;" transform=" matrix(1 0 0 1 0 0) " stroke-linecap="round" />
	<path d="M 90 63.676 H 0 V 10.747 c 0 -2.989 2.431 -5.42 5.42 -5.42 h 79.16 c 2.988 0 5.42 2.431 5.42 5.42 V 63.676 z M 2 61.676 h 86 V 10.747 c 0 -1.886 -1.534 -3.42 -3.42 -3.42 H 5.42 C 3.534 7.327 2 8.861 2 10.747 V 61.676 z" style="stroke: none; stroke-width: 1; stroke-dasharray: none; stroke-linecap: butt; stroke-linejoin: miter; stroke-miterlimit: 10; fill: rgb(0,0,0); fill-rule: nonzero; opacity: 1;" transform=" matrix(1 0 0 1 0 0) " stroke-linecap="round" />
	<path d="M 84.58 70.1 H 5.42 C 2.431 70.1 0 67.668 0 64.68 v -3.004 h 90 v 3.004 C 90 67.668 87.568 70.1 84.58 70.1 z M 2 63.676 v 1.004 c 0 1.886 1.534 3.42 3.42 3.42 h 79.16 c 1.886 0 3.42 -1.534 3.42 -3.42 v -1.004 H 2 z" style="stroke: none; stroke-width: 1; stroke-dasharray: none; stroke-linecap: butt; stroke-linejoin: miter; stroke-miterlimit: 10; fill: rgb(0,0,0); fill-rule: nonzero; opacity: 1;" transform=" matrix(1 0 0 1 0 0) " stroke-linecap="round" />
	<path d="M 59.054 84.674 H 30.946 c -1.988 0 -3.605 -1.617 -3.605 -3.605 s 1.617 -3.605 3.605 -3.605 h 28.108 c 1.988 0 3.605 1.617 3.605 3.605 S 61.042 84.674 59.054 84.674 z M 30.946 79.463 c -0.885 0 -1.605 0.72 -1.605 1.605 s 0.72 1.605 1.605 1.605 h 28.108 c 0.886 0 1.605 -0.72 1.605 -1.605 s -0.72 -1.605 -1.605 -1.605 H 30.946 z" style="stroke: none; stroke-width: 1; stroke-dasharray: none; stroke-linecap: butt; stroke-linejoin: miter; stroke-miterlimit: 10; fill: rgb(0,0,0); fill-rule: nonzero; opacity: 1;" transform=" matrix(1 0 0 1 0 0) " stroke-linecap="round" />
	<path d="M 56.48 79.463 H 33.52 c -0.302 0 -0.587 -0.137 -0.777 -0.371 s -0.264 -0.543 -0.201 -0.838 l 2 -9.363 C 34.64 68.43 35.048 68.1 35.52 68.1 H 54.48 c 0.472 0 0.879 0.33 0.978 0.791 l 2 9.363 c 0.063 0.295 -0.01 0.604 -0.2 0.838 C 57.068 79.326 56.782 79.463 56.48 79.463 z M 34.756 77.463 h 20.488 L 53.672 70.1 H 36.329 L 34.756 77.463 z" style="stroke: none; stroke-width: 1; stroke-dasharray: none; stroke-linecap: butt; stroke-linejoin: miter; stroke-miterlimit: 10; fill: rgb(0,0,0); fill-rule: nonzero; opacity: 1;" transform=" matrix(1 0 0 1 0 0) " stroke-linecap="round" />
	<rect x="47.31" y="22.03" rx="0" ry="0" width="7.35" height="13.04" style="stroke: none; stroke-width: 1; stroke-dasharray: none; stroke-linecap: butt; stroke-linejoin: miter; stroke-miterlimit: 10; fill: rgb(158,216,161); fill-rule: nonzero; opacity: 1;" transform=" matrix(1 0 0 1 0 0) "/>
	<rect x="59.71" y="16.03" rx="0" ry="0" width="7.35" height="19.04" style="stroke: none; stroke-width: 1; stroke-dasharray: none; stroke-linecap: butt; stroke-linejoin: miter; stroke-miterlimit: 10; fill: rgb(209,207,155); fill-rule: nonzero; opacity: 1;" transform=" matrix(1 0 0 1 0 0) "/>
	<rect x="72.11" y="26.77" rx="0" ry="0" width="7.35" height="8.3" style="stroke: none; stroke-width: 1; stroke-dasharray: none; stroke-linecap: butt; stroke-linejoin: miter; stroke-miterlimit: 10; fill: rgb(209,157,155); fill-rule: nonzero; opacity: 1;" transform=" matrix(1 0 0 1 0 0) "/>
	<path d="M 54.657 36.064 H 47.31 c -0.553 0 -1 -0.448 -1 -1 V 22.028 c 0 -0.552 0.447 -1 1 -1 h 7.348 c 0.553 0 1 0.448 1 1 v 13.036 C 55.657 35.616 55.21 36.064 54.657 36.064 z M 48.31 34.064 h 5.348 V 23.028 H 48.31 V 34.064 z" style="stroke: none; stroke-width: 1; stroke-dasharray: none; stroke-linecap: butt; stroke-linejoin: miter; stroke-miterlimit: 10; fill: rgb(0,0,0); fill-rule: nonzero; opacity: 1;" transform=" matrix(1 0 0 1 0 0) " stroke-linecap="round" />
	<path d="M 67.057 36.064 h -7.348 c -0.553 0 -1 -0.448 -1 -1 V 16.028 c 0 -0.552 0.447 -1 1 -1 h 7.348 c 0.553 0 1 0.448 1 1 v 19.036 C 68.057 35.616 67.609 36.064 67.057 36.064 z M 60.709 34.064 h 5.348 V 17.028 h -5.348 V 34.064 z" style="stroke: none; stroke-width: 1; stroke-dasharray: none; stroke-linecap: butt; stroke-linejoin: miter; stroke-miterlimit: 10; fill: rgb(0,0,0); fill-rule: nonzero; opacity: 1;" transform=" matrix(1 0 0 1 0 0) " stroke-linecap="round" />
	<path d="M 79.457 36.064 h -7.348 c -0.553 0 -1 -0.448 -1 -1 v -8.295 c 0 -0.552 0.447 -1 1 -1 h 7.348 c 0.553 0 1 0.448 1 1 v 8.295 C 80.457 35.616 80.01 36.064 79.457 36.064 z M 73.109 34.064 h 5.348 v -6.295 h -5.348 V 34.064 z" style="stroke: none; stroke-width: 1; stroke-dasharray: none; stroke-linecap: butt; stroke-linejoin: miter; stroke-miterlimit: 10; fill: rgb(0,0,0); fill-rule: nonzero; opacity: 1;" transform=" matrix(1 0 0 1 0 0) " stroke-linecap="round" />
	<path d="M 47.31 54.877 c -0.273 0 -0.546 -0.111 -0.744 -0.331 c -0.369 -0.411 -0.335 -1.043 0.075 -1.413 L 59.04 41.986 c 0.354 -0.316 0.88 -0.343 1.263 -0.061 l 11.721 8.646 l 6.74 -6.488 c 0.396 -0.382 1.031 -0.372 1.414 0.027 c 0.383 0.397 0.371 1.031 -0.027 1.414 l -7.348 7.074 c -0.353 0.337 -0.896 0.372 -1.287 0.084 l -11.744 -8.663 L 47.979 54.621 C 47.787 54.792 47.548 54.877 47.31 54.877 z" style="stroke: none; stroke-width: 1; stroke-dasharray: none; stroke-linecap: butt; stroke-linejoin: miter; stroke-miterlimit: 10; fill: rgb(0,0,0); fill-rule: nonzero; opacity: 1;" transform=" matrix(1 0 0 1 0 0) " stroke-linecap="round" />
	<path d="M 35.051 17.028 H 8.979 c -0.552 0 -1 -0.448 -1 -1 s 0.448 -1 1 -1 h 26.072 c 0.552 0 1 0.448 1 1 S 35.603 17.028 35.051 17.028 z" style="stroke: none; stroke-width: 1; stroke-dasharray: none; stroke-linecap: butt; stroke-linejoin: miter; stroke-miterlimit: 10; fill: rgb(0,0,0); fill-rule: nonzero; opacity: 1;" transform=" matrix(1 0 0 1 0 0) " stroke-linecap="round" />
	<path d="M 35.051 24.598 H 8.979 c -0.552 0 -1 -0.448 -1 -1 s 0.448 -1 1 -1 h 26.072 c 0.552 0 1 0.448 1 1 S 35.603 24.598 35.051 24.598 z" style="stroke: none; stroke-width: 1; stroke-dasharray: none; stroke-linecap: butt; stroke-linejoin: miter; stroke-miterlimit: 10; fill: rgb(0,0,0); fill-rule: nonzero; opacity: 1;" transform=" matrix(1 0 0 1 0 0) " stroke-linecap="round" />
	<path d="M 35.051 32.168 H 8.979 c -0.552 0 -1 -0.448 -1 -1 s 0.448 -1 1 -1 h 26.072 c 0.552 0 1 0.448 1 1 S 35.603 32.168 35.051 32.168 z" style="stroke: none; stroke-width: 1; stroke-dasharray: none; stroke-linecap: butt; stroke-linejoin: miter; stroke-miterlimit: 10; fill: rgb(0,0,0); fill-rule: nonzero; opacity: 1;" transform=" matrix(1 0 0 1 0 0) " stroke-linecap="round" />
	<path d="M 35.051 39.737 H 8.979 c -0.552 0 -1 -0.448 -1 -1 s 0.448 -1 1 -1 h 26.072 c 0.552 0 1 0.448 1 1 S 35.603 39.737 35.051 39.737 z" style="stroke: none; stroke-width: 1; stroke-dasharray: none; stroke-linecap: butt; stroke-linejoin: miter; stroke-miterlimit: 10; fill: rgb(0,0,0); fill-rule: nonzero; opacity: 1;" transform=" matrix(1 0 0 1 0 0) " stroke-linecap="round" />
	<path d="M 35.051 47.308 H 8.979 c -0.552 0 -1 -0.447 -1 -1 c 0 -0.552 0.448 -1 1 -1 h 26.072 c 0.552 0 1 0.448 1 1 C 36.051 46.86 35.603 47.308 35.051 47.308 z" style="stroke: none; stroke-width: 1; stroke-dasharray: none; stroke-linecap: butt; stroke-linejoin: miter; stroke-miterlimit: 10; fill: rgb(0,0,0); fill-rule: nonzero; opacity: 1;" transform=" matrix(1 0 0 1 0 0) " stroke-linecap="round" />
	<path d="M 25.051 54.877 H 8.979 c -0.552 0 -1 -0.447 -1 -1 s 0.448 -1 1 -1 h 16.072 c 0.552 0 1 0.447 1 1 S 25.603 54.877 25.051 54.877 z" style="stroke: none; stroke-width: 1; stroke-dasharray: none; stroke-linecap: butt; stroke-linejoin: miter; stroke-miterlimit: 10; fill: rgb(0,0,0); fill-rule: nonzero; opacity: 1;" transform=" matrix(1 0 0 1 0 0) " stroke-linecap="round" />
</g>
</svg>