<svg xmlns="http://www.w3.org/2000/svg" xmlns:xlink="http://www.w3.org/1999/xlink" version="1.1" viewBox="0 0 256 256" xml:space="preserve">

<defs>
</defs>
<g style="stroke: none; stroke-width: 0; stroke-dasharray: none; stroke-linecap: butt; stroke-linejoin: miter; stroke-miterlimit: 10; fill: none; fill-rule: nonzero; opacity: 1;" transform="translate(1.4065934065934016 1.4065934065934016) scale(2.81 2.81)" >
	<path d="M 1.178 15.184 c -0.703 0 -1.277 -0.618 -1.163 -1.311 c 0.628 -3.84 3.967 -6.771 7.993 -6.771 h 5.859 l 6.256 8.082 H 1.178 z" style="stroke: none; stroke-width: 1; stroke-dasharray: none; stroke-linecap: butt; stroke-linejoin: miter; stroke-miterlimit: 10; fill: rgb(67,138,232); fill-rule: nonzero; opacity: 1;" transform=" matrix(1 0 0 1 0 0) " stroke-linecap="round" />
	<path d="M 67.027 74.816 V 59.161 V 15.184 c 0 -4.464 -3.626 -8.082 -8.099 -8.082 h 0 h 0 H 8.007 h 0 h 0 c 4.473 0 8.099 3.619 8.099 8.082 v 43.976 v 15.655 c 0 4.464 3.626 8.082 8.099 8.082 h 0 L 67.027 74.816 z" style="stroke: none; stroke-width: 1; stroke-dasharray: none; stroke-linecap: butt; stroke-linejoin: miter; stroke-miterlimit: 10; fill: rgb(128,180,251); fill-rule: nonzero; opacity: 1;" transform=" matrix(1 0 0 1 0 0) " stroke-linecap="round" />
	<path d="M 67.027 74.816 H 33.682 c -0.755 0 -1.362 0.567 -1.484 1.311 c -0.628 3.84 -3.967 6.771 -7.993 6.771 h 50.92 h 0 c 4.057 0 7.418 -2.977 8.007 -6.862 c 0.098 -0.646 -0.431 -1.221 -1.086 -1.221 L 67.027 74.816" style="stroke: none; stroke-width: 1; stroke-dasharray: none; stroke-linecap: butt; stroke-linejoin: miter; stroke-miterlimit: 10; fill: rgb(67,138,232); fill-rule: nonzero; opacity: 1;" transform=" matrix(1 0 0 1 0 0) " stroke-linecap="round" />
	<path d="M 46.482 53.518 H 26.972 c -0.552 0 -1 -0.447 -1 -1 s 0.448 -1 1 -1 h 19.511 c 0.553 0 1 0.447 1 1 S 47.035 53.518 46.482 53.518 z" style="stroke: none; stroke-width: 1; stroke-dasharray: none; stroke-linecap: butt; stroke-linejoin: miter; stroke-miterlimit: 10; fill: rgb(67,138,232); fill-rule: nonzero; opacity: 1;" transform=" matrix(1 0 0 1 0 0) " stroke-linecap="round" />
	<path d="M 43.647 65.245 H 26.972 c -0.552 0 -1 -0.447 -1 -1 s 0.448 -1 1 -1 h 16.676 c 0.552 0 1 0.447 1 1 S 44.2 65.245 43.647 65.245 z" style="stroke: none; stroke-width: 1; stroke-dasharray: none; stroke-linecap: butt; stroke-linejoin: miter; stroke-miterlimit: 10; fill: rgb(67,138,232); fill-rule: nonzero; opacity: 1;" transform=" matrix(1 0 0 1 0 0) " stroke-linecap="round" />
	<path d="M 32.101 23.098 c 3.75 -0.54 7.064 -1.884 9.822 -4.251 c 2.758 2.368 6.072 3.711 9.822 4.251 l 0 10.442 c 0 5.288 -4.099 9.787 -9.822 11.461 c -5.724 -1.674 -9.822 -6.173 -9.822 -11.461 V 23.098 z" style="stroke: none; stroke-width: 1; stroke-dasharray: none; stroke-linecap: butt; stroke-linejoin: miter; stroke-miterlimit: 10; fill: rgb(67,138,232); fill-rule: nonzero; opacity: 1;" transform=" matrix(1 0 0 1 0 0) " stroke-linecap="round" />
	<path d="M 40.718 36.304 c -0.003 0 -0.005 0 -0.008 0 c -0.291 -0.002 -0.566 -0.131 -0.754 -0.353 l -2.869 -3.381 c -0.357 -0.421 -0.306 -1.052 0.116 -1.409 s 1.052 -0.305 1.409 0.115 l 2.12 2.498 l 5.255 -5.988 c 0.365 -0.415 0.998 -0.457 1.411 -0.092 c 0.416 0.364 0.457 0.996 0.093 1.411 l -6.02 6.858 C 41.28 36.18 41.006 36.304 40.718 36.304 z" style="stroke: none; stroke-width: 1; stroke-dasharray: none; stroke-linecap: butt; stroke-linejoin: miter; stroke-miterlimit: 10; fill: rgb(255,208,90); fill-rule: nonzero; opacity: 1;" transform=" matrix(1 0 0 1 0 0) " stroke-linecap="round" />
	<path d="M 54.711 53.78 L 50.6 64.067 l 10.287 -4.111 l 27.835 -27.835 c 1.705 -1.705 1.705 -4.47 0 -6.176 c -1.705 -1.705 -4.47 -1.705 -6.176 0 L 54.711 53.78 z" style="stroke: none; stroke-width: 1; stroke-dasharray: none; stroke-linecap: butt; stroke-linejoin: miter; stroke-miterlimit: 10; fill: rgb(67,138,232); fill-rule: nonzero; opacity: 1;" transform=" matrix(1 0 0 1 0 0) " stroke-linecap="round" />
	<polygon points="54.71,53.78 50.6,64.07 60.89,59.96 " style="stroke: none; stroke-width: 1; stroke-dasharray: none; stroke-linecap: butt; stroke-linejoin: miter; stroke-miterlimit: 10; fill: rgb(204,204,204); fill-rule: nonzero; opacity: 1;" transform="  matrix(1 0 0 1 0 0) "/>
	<path d="M 82.545 25.946 c 1.705 -1.705 4.47 -1.705 6.176 0 c 1.705 1.705 1.705 4.47 0 6.176 l -2.262 2.262 l -6.176 -6.176 L 82.545 25.946 z" style="stroke: none; stroke-width: 1; stroke-dasharray: none; stroke-linecap: butt; stroke-linejoin: miter; stroke-miterlimit: 10; fill: rgb(204,204,204); fill-rule: nonzero; opacity: 1;" transform=" matrix(1 0 0 1 0 0) " stroke-linecap="round" />
	<path d="M 77.444 50.025 c -0.256 0 -0.512 -0.098 -0.707 -0.293 c -0.391 -0.391 -0.391 -1.023 0 -1.414 l 10.037 -10.038 c 0.563 -0.563 0.873 -1.311 0.873 -2.106 c 0 -0.796 -0.31 -1.544 -0.873 -2.107 c -0.391 -0.39 -0.391 -1.023 0 -1.414 s 1.023 -0.391 1.414 0 c 0.94 0.94 1.459 2.191 1.459 3.521 s -0.519 2.581 -1.459 3.521 L 78.151 49.732 C 77.956 49.928 77.7 50.025 77.444 50.025 z" style="stroke: none; stroke-width: 1; stroke-dasharray: none; stroke-linecap: butt; stroke-linejoin: miter; stroke-miterlimit: 10; fill: rgb(204,204,204); fill-rule: nonzero; opacity: 1;" transform=" matrix(1 0 0 1 0 0) " stroke-linecap="round" />
</g>
</svg>