<svg width="341" height="100" viewBox="0 0 341 100" fill="none" xmlns="http://www.w3.org/2000/svg">
<g clip-path="url(#clip0_1_71)">
<path d="M144.833 50C123.57 42.0602 120.353 34.8787 130.188 14.6447C109.954 24.4801 102.773 21.263 94.833 0C86.8932 21.263 79.7117 24.4801 59.4777 14.6447C69.3131 34.8787 66.096 42.0602 44.833 50C66.096 57.9398 69.3131 65.1213 59.4777 85.3553C79.7117 75.5199 86.8932 78.737 94.833 100C102.773 78.737 109.954 75.5199 130.188 85.3553C120.353 65.1213 123.57 57.9398 144.833 50ZM94.833 76.0399C80.4483 76.0399 68.7931 64.3848 68.7931 50C68.7931 35.6152 80.4483 23.9601 94.833 23.9601C109.218 23.9601 120.873 35.6152 120.873 50C120.873 64.3848 109.218 76.0399 94.833 76.0399Z" fill="#F7B033"/>
<path d="M17.0061 38.3665V48.3752C17.0061 53.4554 14.1681 55.2318 8.97964 55.2318H6.03336V67.7751H0V32.2249H8.83882C13.3557 32.2249 17.0169 33.2864 17.0169 38.3665H17.0061ZM10.9619 38.5723C10.9619 37.1967 10.3553 36.1352 8.67634 36.1352H6.03336V51.419H8.67634C10.3553 51.419 10.9619 50.3574 10.9619 49.0359V38.5832V38.5723Z" fill="#29235C"/>
<path d="M38.0958 32.2249L32.1599 67.7643H25.0975L19.1616 32.2249H25.26L29.2244 59.0879L33.2864 32.2249H38.1066H38.0958Z" fill="#29235C"/>
<path d="M154.647 62.2075V56.6724H160.691V61.9042C160.691 63.2799 161.352 64.2872 163.172 64.2872C164.948 64.2872 165.566 63.2691 165.566 61.9042V54.5385C165.566 52.9679 165.056 52.0472 163.172 52.0472H161.298C157.442 52.0472 154.647 51.2348 154.647 47.4762V37.9766C154.647 32.8964 158.655 31.8782 163.074 31.8782C167.645 31.8782 171.653 32.8964 171.653 37.8141V43.6525H165.609V38.1174C165.609 36.7418 164.894 35.7344 163.074 35.7344C161.254 35.7344 160.691 36.7526 160.691 38.1174V45.3314C160.691 47.0645 161.406 47.7686 163.074 47.8228H164.948C168.913 47.8228 171.653 48.8843 171.653 52.0364V62.0342C171.653 67.1144 167.743 68.0784 163.172 68.0784C158.601 68.0784 154.647 67.1144 154.647 62.1859V62.2075Z" fill="#29235C"/>
<path d="M202.08 47.6928V67.7968H196.437V47.9961C196.437 46.4688 196.133 45.5589 194.508 45.5589C192.884 45.5589 192.429 46.5771 192.429 48.0503V67.8076H186.839V48.0069C186.839 46.4796 186.536 45.5698 184.857 45.5698C183.178 45.5698 182.875 46.5879 182.875 48.0611V67.8185H177.188V42.2335H182.063L182.518 44.1074C183.536 42.6885 184.911 41.7678 186.785 41.7678C189.125 41.7678 191.053 42.3743 191.909 44.4541C192.927 42.7751 194.346 41.7678 196.426 41.7678C199.729 41.7678 202.069 42.8834 202.069 47.7036L202.08 47.6928Z" fill="#29235C"/>
<path d="M222.26 47.8877V67.7968H217.634L216.974 65.9228C216.01 67.2443 214.688 68.0567 212.966 68.0567C209.51 68.0567 206.976 67.1902 206.976 62.1208V58.5138C206.976 53.4878 209.51 52.5238 212.76 52.5238C214.385 52.5238 215.652 52.8271 216.627 53.4878V47.8986C216.627 46.4796 216.27 45.4614 214.547 45.4614C212.825 45.4614 212.619 46.4796 212.619 47.8986V50.1299H206.976V47.8986C206.976 42.8184 210.171 41.7569 214.536 41.7569C219.205 41.7569 222.26 42.8184 222.26 47.8986V47.8877ZM216.627 61.9584V58.6546C216.627 57.279 216.367 56.0117 214.547 56.0117C212.868 56.0117 212.619 57.0732 212.619 58.3947V61.9475C212.619 63.3665 212.868 64.3847 214.547 64.3847C216.226 64.3847 216.627 63.3665 216.627 61.9475V61.9584Z" fill="#29235C"/>
<path d="M242.266 47.6928V50.13H236.634V47.9961C236.634 46.523 236.33 45.5589 235.063 45.5589C233.796 45.5589 233.492 46.5771 233.492 48.0503V67.8076H227.806V42.2227H232.68L233.189 44.2049C234.002 42.8293 235.377 41.7678 237.609 41.7678C240.598 41.7678 242.277 42.8834 242.277 47.7036L242.266 47.6928Z" fill="#29235C"/>
<path d="M255.535 46.0138H252.795V67.7968H247.162V46.0138H244.422V42.201H247.162V34.2829H252.795V42.201H255.535V46.0138Z" fill="#29235C"/>
<path d="M259.402 61.9584V38.0416C259.402 32.9614 263.161 31.8999 267.883 31.8999C272.552 31.8999 276.462 32.9614 276.462 38.0416V43.6742H270.418V37.9874C270.418 36.6659 269.757 35.6044 267.883 35.6044C266.01 35.6044 265.446 36.6659 265.446 37.9874V62.0017C265.446 63.3774 266.053 64.4389 267.883 64.4389C269.714 64.4389 270.418 63.3774 270.418 62.0559V56.2717H276.462V62.0126C276.462 67.0927 272.595 68.1001 267.883 68.1001C263.161 68.1001 259.402 67.0386 259.402 61.9584Z" fill="#29235C"/>
<path d="M281.748 32.2573H287.435V67.7967H281.748V32.2573Z" fill="#29235C"/>
<path d="M292.624 36.3627C292.624 34.4346 294.151 32.9073 296.079 32.9073C298.007 32.9073 299.534 34.4238 299.534 36.3627C299.534 38.3016 297.964 39.818 296.079 39.818C294.194 39.818 292.624 38.2474 292.624 36.3627ZM293.23 42.201H298.863V67.786H293.23V42.201Z" fill="#29235C"/>
<path d="M304.463 61.9584V47.8444C304.463 42.7643 307.463 41.7461 312.024 41.7461C316.54 41.7461 319.693 42.7643 319.693 47.8444V50.13H314.049V47.7903C314.049 46.4688 313.746 45.4073 312.024 45.4073C310.301 45.4073 310.095 46.4688 310.095 47.7903V62.0126C310.095 63.334 310.399 64.3956 312.132 64.3956C313.865 64.3956 314.06 63.334 314.06 62.0126V59.727H319.703V61.9584C319.703 67.0386 316.66 68.0568 312.089 68.0568C307.517 68.0568 304.474 67.0386 304.474 61.9584H304.463Z" fill="#29235C"/>
<path d="M340.576 67.7967H334.89L330.167 55.9683H329.56V67.7967H323.917V32.2573H329.56V51.8522H329.961L334.381 42.2118H339.916L334.586 52.7188L340.576 67.7967Z" fill="#29235C"/>
</g>
<defs>
<clipPath id="clip0_1_71">
<rect width="340.576" height="100" fill="white"/>
</clipPath>
</defs>
</svg>
