<svg xmlns="http://www.w3.org/2000/svg" xmlns:xlink="http://www.w3.org/1999/xlink" version="1.1"  viewBox="0 0 256 256" xml:space="preserve">

<defs>
</defs>
<g style="stroke: none; stroke-width: 0; stroke-dasharray: none; stroke-linecap: butt; stroke-linejoin: miter; stroke-miterlimit: 10; fill: none; fill-rule: nonzero; opacity: 1;" transform="translate(1.4065934065934016 1.4065934065934016) scale(2.81 2.81)" >
	<polygon points="89,51.13 1,51.13 14.9,16.21 75.1,16.21 " style="stroke: none; stroke-width: 1; stroke-dasharray: none; stroke-linecap: butt; stroke-linejoin: miter; stroke-miterlimit: 10; fill: rgb(67,152,209); fill-rule: nonzero; opacity: 1;" transform="  matrix(1 0 0 1 0 0) "/>
	<rect x="37.99" y="58.68" rx="0" ry="0" width="14.02" height="7.55" style="stroke: none; stroke-width: 1; stroke-dasharray: none; stroke-linecap: butt; stroke-linejoin: miter; stroke-miterlimit: 10; fill: rgb(178,178,178); fill-rule: nonzero; opacity: 1;" transform=" matrix(1 0 0 1 0 0) "/>
	<path d="M 58.964 73.789 H 31.036 v -4.491 c 0 -1.691 1.371 -3.063 3.063 -3.063 h 21.802 c 1.691 0 3.063 1.371 3.063 3.063 V 73.789 z" style="stroke: none; stroke-width: 1; stroke-dasharray: none; stroke-linecap: butt; stroke-linejoin: miter; stroke-miterlimit: 10; fill: rgb(209,209,209); fill-rule: nonzero; opacity: 1;" transform=" matrix(1 0 0 1 0 0) " stroke-linecap="round" />
	<rect x="1" y="51.13" rx="0" ry="0" width="88" height="7.55" style="stroke: none; stroke-width: 1; stroke-dasharray: none; stroke-linecap: butt; stroke-linejoin: miter; stroke-miterlimit: 10; fill: rgb(209,209,209); fill-rule: nonzero; opacity: 1;" transform=" matrix(1 0 0 1 0 0) "/>
	<polygon points="51.39,32.99 46.65,32.99 48.51,21.39 38.61,34.84 43.35,34.84 41.49,46.45 50.71,33.92 " style="stroke: none; stroke-width: 1; stroke-dasharray: none; stroke-linecap: butt; stroke-linejoin: miter; stroke-miterlimit: 10; fill: rgb(253,182,47); fill-rule: nonzero; opacity: 1;" transform="  matrix(1 0 0 1 0 0) "/>
	<path d="M 41.486 47.444 c -0.129 0 -0.261 -0.025 -0.386 -0.078 c -0.426 -0.179 -0.674 -0.625 -0.601 -1.081 l 1.683 -10.441 h -3.572 c -0.377 0 -0.722 -0.212 -0.893 -0.549 c -0.17 -0.336 -0.136 -0.74 0.087 -1.044 l 9.904 -13.457 c 0.274 -0.372 0.77 -0.506 1.192 -0.33 c 0.426 0.179 0.674 0.625 0.601 1.082 l -1.683 10.441 h 3.572 c 0.377 0 0.723 0.212 0.893 0.549 c 0.17 0.337 0.137 0.741 -0.088 1.044 l -9.904 13.456 C 42.099 47.3 41.796 47.444 41.486 47.444 z M 40.587 33.844 h 2.769 c 0.293 0 0.571 0.128 0.761 0.352 s 0.272 0.518 0.226 0.808 l -1.211 7.519 l 6.281 -8.534 h -2.768 c -0.293 0 -0.571 -0.128 -0.761 -0.352 s -0.272 -0.518 -0.226 -0.808 l 1.212 -7.52 L 40.587 33.844 z" style="stroke: none; stroke-width: 1; stroke-dasharray: none; stroke-linecap: butt; stroke-linejoin: miter; stroke-miterlimit: 10; fill: rgb(0,0,0); fill-rule: nonzero; opacity: 1;" transform=" matrix(1 0 0 1 0 0) " stroke-linecap="round" />
	<path d="M 89 52.129 H 1 c -0.332 0 -0.642 -0.164 -0.828 -0.438 s -0.224 -0.623 -0.102 -0.932 L 13.974 15.84 c 0.152 -0.38 0.52 -0.63 0.929 -0.63 h 60.193 c 0.409 0 0.777 0.25 0.929 0.63 l 13.903 34.918 c 0.123 0.309 0.085 0.657 -0.102 0.932 C 89.642 51.965 89.332 52.129 89 52.129 z M 2.475 50.129 h 85.051 L 74.419 17.21 H 15.582 L 2.475 50.129 z" style="stroke: none; stroke-width: 1; stroke-dasharray: none; stroke-linecap: butt; stroke-linejoin: miter; stroke-miterlimit: 10; fill: rgb(0,0,0); fill-rule: nonzero; opacity: 1;" transform=" matrix(1 0 0 1 0 0) " stroke-linecap="round" />
	<path d="M 45 52.129 c -0.552 0 -1 -0.447 -1 -1 v -9.458 c 0 -0.552 0.448 -1 1 -1 s 1 0.448 1 1 v 9.458 C 46 51.682 45.552 52.129 45 52.129 z" style="stroke: none; stroke-width: 1; stroke-dasharray: none; stroke-linecap: butt; stroke-linejoin: miter; stroke-miterlimit: 10; fill: rgb(0,0,0); fill-rule: nonzero; opacity: 1;" transform=" matrix(1 0 0 1 0 0) " stroke-linecap="round" />
	<path d="M 45 27.162 c -0.552 0 -1 -0.448 -1 -1 V 16.21 c 0 -0.552 0.448 -1 1 -1 s 1 0.448 1 1 v 9.951 C 46 26.714 45.552 27.162 45 27.162 z" style="stroke: none; stroke-width: 1; stroke-dasharray: none; stroke-linecap: butt; stroke-linejoin: miter; stroke-miterlimit: 10; fill: rgb(0,0,0); fill-rule: nonzero; opacity: 1;" transform=" matrix(1 0 0 1 0 0) " stroke-linecap="round" />
	<path d="M 22.756 52.129 c -0.064 0 -0.13 -0.006 -0.196 -0.02 c -0.542 -0.107 -0.893 -0.634 -0.786 -1.176 l 6.952 -34.918 c 0.107 -0.542 0.633 -0.893 1.176 -0.786 c 0.542 0.108 0.893 0.635 0.786 1.176 l -6.952 34.918 C 23.641 51.8 23.223 52.129 22.756 52.129 z" style="stroke: none; stroke-width: 1; stroke-dasharray: none; stroke-linecap: butt; stroke-linejoin: miter; stroke-miterlimit: 10; fill: rgb(0,0,0); fill-rule: nonzero; opacity: 1;" transform=" matrix(1 0 0 1 0 0) " stroke-linecap="round" />
	<path d="M 67.244 52.129 c -0.468 0 -0.885 -0.329 -0.979 -0.805 l -6.951 -34.918 c -0.108 -0.542 0.243 -1.068 0.785 -1.176 c 0.549 -0.108 1.068 0.244 1.176 0.786 l 6.951 34.918 c 0.108 0.542 -0.243 1.068 -0.785 1.176 C 67.374 52.123 67.309 52.129 67.244 52.129 z" style="stroke: none; stroke-width: 1; stroke-dasharray: none; stroke-linecap: butt; stroke-linejoin: miter; stroke-miterlimit: 10; fill: rgb(0,0,0); fill-rule: nonzero; opacity: 1;" transform=" matrix(1 0 0 1 0 0) " stroke-linecap="round" />
	<path d="M 82.049 34.67 h -31.16 c -0.553 0 -1 -0.448 -1 -1 s 0.447 -1 1 -1 h 31.16 c 0.553 0 1 0.448 1 1 S 82.602 34.67 82.049 34.67 z" style="stroke: none; stroke-width: 1; stroke-dasharray: none; stroke-linecap: butt; stroke-linejoin: miter; stroke-miterlimit: 10; fill: rgb(0,0,0); fill-rule: nonzero; opacity: 1;" transform=" matrix(1 0 0 1 0 0) " stroke-linecap="round" />
	<path d="M 39.474 34.67 H 7.952 c -0.552 0 -1 -0.448 -1 -1 s 0.448 -1 1 -1 h 31.522 c 0.552 0 1 0.448 1 1 S 40.026 34.67 39.474 34.67 z" style="stroke: none; stroke-width: 1; stroke-dasharray: none; stroke-linecap: butt; stroke-linejoin: miter; stroke-miterlimit: 10; fill: rgb(0,0,0); fill-rule: nonzero; opacity: 1;" transform=" matrix(1 0 0 1 0 0) " stroke-linecap="round" />
	<path d="M 89 59.683 H 1 c -0.552 0 -1 -0.447 -1 -1 v -7.554 c 0 -0.553 0.448 -1 1 -1 h 88 c 0.553 0 1 0.447 1 1 v 7.554 C 90 59.235 89.553 59.683 89 59.683 z M 2 57.683 h 86 v -5.554 H 2 V 57.683 z" style="stroke: none; stroke-width: 1; stroke-dasharray: none; stroke-linecap: butt; stroke-linejoin: miter; stroke-miterlimit: 10; fill: rgb(0,0,0); fill-rule: nonzero; opacity: 1;" transform=" matrix(1 0 0 1 0 0) " stroke-linecap="round" />
	<path d="M 52.012 67.236 H 37.988 c -0.552 0 -1 -0.447 -1 -1 v -7.554 c 0 -0.553 0.448 -1 1 -1 h 14.024 c 0.553 0 1 0.447 1 1 v 7.554 C 53.012 66.789 52.564 67.236 52.012 67.236 z M 38.988 65.236 h 12.024 v -5.554 H 38.988 V 65.236 z" style="stroke: none; stroke-width: 1; stroke-dasharray: none; stroke-linecap: butt; stroke-linejoin: miter; stroke-miterlimit: 10; fill: rgb(0,0,0); fill-rule: nonzero; opacity: 1;" transform=" matrix(1 0 0 1 0 0) " stroke-linecap="round" />
	<path d="M 58.964 74.789 H 31.037 c -0.552 0 -1 -0.447 -1 -1 v -4.49 c 0 -2.24 1.822 -4.063 4.063 -4.063 h 21.802 c 2.24 0 4.063 1.822 4.063 4.063 v 4.49 C 59.964 74.342 59.517 74.789 58.964 74.789 z M 32.037 72.789 h 25.927 v -3.49 c 0 -1.138 -0.925 -2.063 -2.063 -2.063 H 34.099 c -1.137 0 -2.063 0.925 -2.063 2.063 V 72.789 z" style="stroke: none; stroke-width: 1; stroke-dasharray: none; stroke-linecap: butt; stroke-linejoin: miter; stroke-miterlimit: 10; fill: rgb(0,0,0); fill-rule: nonzero; opacity: 1;" transform=" matrix(1 0 0 1 0 0) " stroke-linecap="round" />
</g>
</svg>